# xmcd CD database file
#
# Track frame offsets:
#	150
#	38157
#	60230
#	86718
#	118489
#	140839
#	169998
#	200723
#	236558
#
# Disc length: 3598 seconds
#
# Revision: 0
# Processed by: cddbd v1.5.2PL0 Copyright (c) Steve Scherf et al.
# Submitted via: CDex 1.51
#
DISCID=860e0c09
DTITLE=Frank Amsallem - A week in paris
DYEAR=2005
DGENRE=Jazz
TTITLE0=Something to live for
TTITLE1=Upper Manhattan medical group
TTITLE2=Absinthe
TTITLE3=Lush life
TTITLE4=Isfahan
TTITLE5=Rest assured
TTITLE6=Paris remains in my heart
TTITLE7=Mr little brown book
TTITLE8=Montmartre
EXTD=YEAR: 2005
EXTT0=
EXTT1=
EXTT2=
EXTT3=
EXTT4=
EXTT5=
EXTT6=
EXTT7=
EXTT8=
PLAYORDER=
